<?xml version="1.0" encoding="utf-8"?>
<!-- Generator: Adobe Illustrator 21.0.2, SVG Export Plug-In . SVG Version: 6.00 Build 0)  -->
<svg version="1.1" id="Layer_1" xmlns="http://www.w3.org/2000/svg" xmlns:xlink="http://www.w3.org/1999/xlink" x="0px" y="0px"
	 viewBox="0 0 40 40" style="enable-background:new 0 0 40 40;" xml:space="preserve">
<style type="text/css">
	.st0{fill:url(#SVGID_1_);}
</style>
<linearGradient id="SVGID_1_" gradientUnits="userSpaceOnUse" x1="0" y1="22" x2="40" y2="22" gradientTransform="matrix(1 0 0 -1 0 42)">
	<stop  offset="0" style="stop-color:#3B5998"/>
	<stop  offset="1" style="stop-color:#336699"/>
</linearGradient>
<path class="st0" d="M33,0H7C3.1,0,0,3.1,0,7v26c0,3.9,3.1,7,7,7h13.4V25.1h-5v-6.3h5V15c0-5.2,2.9-8.8,7.6-8.8c2.2,0,3.8,0,5,0v6.3
	h-2.5c-2.5,0-3.8,1.3-3.8,3.8v2.5H33l-1.3,6.3h-5V40H33c3.9,0,7-3.1,7-7V7C40,3.1,36.9,0,33,0z"/>
</svg>
