<?xml version="1.0" encoding="utf-8"?>
<!-- Generator: Adobe Illustrator 21.0.2, SVG Export Plug-In . SVG Version: 6.00 Build 0)  -->
<svg version="1.1" id="Layer_1" xmlns="http://www.w3.org/2000/svg" xmlns:xlink="http://www.w3.org/1999/xlink" x="0px" y="0px"
	 viewBox="0 0 60 80" style="enable-background:new 0 0 60 80;" xml:space="preserve">
<style type="text/css">
	.st0{clip-path:url(#SVGID_2_);}
	.st1{clip-path:url(#SVGID_4_);fill:#DBB464;}
	.st2{clip-path:url(#SVGID_4_);fill:#DBB363;}
	.st3{clip-path:url(#SVGID_4_);fill:#DAB362;}
	.st4{clip-path:url(#SVGID_4_);fill:#DAB261;}
	.st5{clip-path:url(#SVGID_4_);fill:#D9B260;}
	.st6{clip-path:url(#SVGID_4_);fill:#D9B15F;}
	.st7{clip-path:url(#SVGID_4_);fill:#D8B05E;}
	.st8{clip-path:url(#SVGID_4_);fill:#D8B05D;}
	.st9{clip-path:url(#SVGID_4_);fill:#D7AF5C;}
	.st10{clip-path:url(#SVGID_4_);fill:#D7AF5B;}
	.st11{clip-path:url(#SVGID_4_);fill:#D6AE59;}
	.st12{clip-path:url(#SVGID_4_);fill:#D6AD58;}
	.st13{clip-path:url(#SVGID_4_);fill:#D5AD57;}
	.st14{clip-path:url(#SVGID_4_);fill:#D5AC56;}
	.st15{clip-path:url(#SVGID_4_);fill:#D5AC55;}
	.st16{clip-path:url(#SVGID_4_);fill:#D4AB54;}
	.st17{clip-path:url(#SVGID_4_);fill:#D4AA53;}
	.st18{clip-path:url(#SVGID_4_);fill:#D3AA52;}
	.st19{clip-path:url(#SVGID_4_);fill:#D3A951;}
	.st20{clip-path:url(#SVGID_4_);fill:#D2A950;}
	.st21{clip-path:url(#SVGID_4_);fill:#D2A84F;}
	.st22{clip-path:url(#SVGID_4_);fill:#D1A74E;}
	.st23{clip-path:url(#SVGID_4_);fill:#D1A74D;}
	.st24{clip-path:url(#SVGID_4_);fill:#D0A64C;}
	.st25{clip-path:url(#SVGID_4_);fill:#D0A64B;}
	.st26{clip-path:url(#SVGID_4_);fill:#CFA54A;}
	.st27{clip-path:url(#SVGID_4_);fill:#CFA449;}
	.st28{clip-path:url(#SVGID_4_);fill:#CFA448;}
	.st29{clip-path:url(#SVGID_4_);fill:#CEA347;}
	.st30{clip-path:url(#SVGID_4_);fill:#CEA346;}
	.st31{clip-path:url(#SVGID_4_);fill:#CDA245;}
	.st32{clip-path:url(#SVGID_4_);fill:#CDA143;}
	.st33{clip-path:url(#SVGID_4_);fill:#CCA142;}
	.st34{clip-path:url(#SVGID_4_);fill:#CCA041;}
	.st35{clip-path:url(#SVGID_4_);fill:#CBA040;}
	.st36{clip-path:url(#SVGID_4_);fill:#CB9F3F;}
	.st37{clip-path:url(#SVGID_4_);fill:#CA9F3E;}
	.st38{clip-path:url(#SVGID_4_);fill:#CA9E3D;}
	.st39{clip-path:url(#SVGID_4_);fill:#C99D3C;}
	.st40{clip-path:url(#SVGID_4_);fill:#C99D3B;}
	.st41{clip-path:url(#SVGID_4_);fill:#C99C3A;}
	.st42{clip-path:url(#SVGID_4_);fill:#C89C39;}
	.st43{clip-path:url(#SVGID_4_);fill:#C89B38;}
	.st44{clip-path:url(#SVGID_4_);fill:#C79A37;}
	.st45{clip-path:url(#SVGID_4_);fill:#C79A36;}
	.st46{clip-path:url(#SVGID_4_);fill:#C69935;}
	.st47{clip-path:url(#SVGID_4_);fill:#C69934;}
	.st48{clip-path:url(#SVGID_4_);fill:#C59833;}
	.st49{clip-path:url(#SVGID_4_);fill:#C59732;}
	.st50{clip-path:url(#SVGID_4_);fill:#C59731;}
	.st51{clip-path:url(#SVGID_4_);fill:#C49630;}
	.st52{clip-path:url(#SVGID_4_);fill:#C4962F;}
	.st53{clip-path:url(#SVGID_4_);fill:#C3952E;}
	.st54{clip-path:url(#SVGID_4_);fill:#C3952D;}
	.st55{clip-path:url(#SVGID_4_);fill:#C2942C;}
	.st56{clip-path:url(#SVGID_4_);fill:#C2932B;}
	.st57{clip-path:url(#SVGID_4_);fill:#C1932A;}
	.st58{clip-path:url(#SVGID_4_);fill:#C19229;}
	.st59{clip-path:url(#SVGID_4_);fill:#C09228;}
	.st60{clip-path:url(#SVGID_4_);fill:#C09127;}
	.st61{clip-path:url(#SVGID_4_);fill:#C09026;}
	.st62{clip-path:url(#SVGID_4_);fill:#BF9025;}
	.st63{clip-path:url(#SVGID_4_);fill:#BF8F24;}
	.st64{clip-path:url(#SVGID_4_);fill:#BE8F23;}
	.st65{clip-path:url(#SVGID_4_);fill:#BE8E22;}
	.st66{clip-path:url(#SVGID_4_);fill:#BD8E21;}
	.st67{clip-path:url(#SVGID_4_);fill:#BD8D20;}
	.st68{clip-path:url(#SVGID_4_);fill:#BC8C1F;}
	.st69{clip-path:url(#SVGID_4_);fill:#BC8C1E;}
	.st70{clip-path:url(#SVGID_4_);fill:#BC8B1D;}
	.st71{clip-path:url(#SVGID_4_);fill:#BB8B1C;}
	.st72{clip-path:url(#SVGID_4_);fill:#BB8A1B;}
	.st73{clip-path:url(#SVGID_4_);fill:#BA8A1A;}
	.st74{clip-path:url(#SVGID_4_);fill:#BA8919;}
	.st75{clip-path:url(#SVGID_4_);fill:#B98818;}
	.st76{clip-path:url(#SVGID_4_);fill:#B98817;}
	.st77{clip-path:url(#SVGID_4_);fill:#B98716;}
	.st78{clip-path:url(#SVGID_4_);fill:#B88715;}
	.st79{clip-path:url(#SVGID_4_);fill:#B88614;}
	.st80{clip-path:url(#SVGID_4_);fill:#B78613;}
	.st81{clip-path:url(#SVGID_4_);fill:#B78512;}
	.st82{clip-path:url(#SVGID_4_);fill:#B68511;}
	.st83{clip-path:url(#SVGID_4_);fill:#B68410;}
	.st84{clip-path:url(#SVGID_4_);fill:#B6830F;}
	.st85{clip-path:url(#SVGID_4_);fill:#B5830E;}
	.st86{clip-path:url(#SVGID_4_);fill:#B5820D;}
	.st87{clip-path:url(#SVGID_4_);fill:#B4820C;}
	.st88{clip-path:url(#SVGID_4_);fill:#B4810B;}
	.st89{clip-path:url(#SVGID_4_);fill:#B3810A;}
	.st90{clip-path:url(#SVGID_4_);fill:#B38009;}
	.st91{clip-path:url(#SVGID_4_);fill:#B38008;}
	.st92{clip-path:url(#SVGID_4_);fill:#B27F07;}
	.st93{clip-path:url(#SVGID_4_);fill:#B27F06;}
	.st94{clip-path:url(#SVGID_4_);fill:#B17E05;}
	.st95{clip-path:url(#SVGID_4_);fill:#B17E04;}
	.st96{clip-path:url(#SVGID_4_);fill:#B17D03;}
	.st97{clip-path:url(#SVGID_4_);fill:#B07C03;}
	.st98{clip-path:url(#SVGID_4_);fill:#B07C02;}
	.st99{clip-path:url(#SVGID_4_);fill:#AF7B01;}
	.st100{clip-path:url(#SVGID_4_);fill:#AF7B00;}
	.st101{clip-path:url(#SVGID_4_);fill:#AF7C01;}
	.st102{clip-path:url(#SVGID_4_);fill:#B07D03;}
	.st103{clip-path:url(#SVGID_4_);fill:#B17D04;}
	.st104{clip-path:url(#SVGID_4_);fill:#B27E06;}
	.st105{clip-path:url(#SVGID_4_);fill:#B6840F;}
	.st106{clip-path:url(#SVGID_4_);fill:#B78511;}
	.st107{clip-path:url(#SVGID_4_);fill:#B88714;}
	.st108{clip-path:url(#SVGID_4_);fill:#B98816;}
	.st109{clip-path:url(#SVGID_4_);fill:#BA8918;}
	.st110{clip-path:url(#SVGID_4_);fill:#BB8A1A;}
	.st111{clip-path:url(#SVGID_4_);fill:#BB8B1B;}
	.st112{clip-path:url(#SVGID_4_);fill:#BC8C1D;}
	.st113{clip-path:url(#SVGID_4_);fill:#BD8D1F;}
	.st114{clip-path:url(#SVGID_4_);fill:#BE8E21;}
	.st115{clip-path:url(#SVGID_4_);fill:#BE8F22;}
	.st116{clip-path:url(#SVGID_4_);fill:#BF8F23;}
	.st117{clip-path:url(#SVGID_4_);fill:#BF9024;}
	.st118{clip-path:url(#SVGID_4_);fill:#C09126;}
	.st119{clip-path:url(#SVGID_4_);fill:#C19228;}
	.st120{clip-path:url(#SVGID_4_);fill:#C19329;}
	.st121{clip-path:url(#SVGID_4_);fill:#C2932A;}
	.st122{clip-path:url(#SVGID_4_);fill:#C2942B;}
	.st123{clip-path:url(#SVGID_4_);fill:#C3942C;}
	.st124{clip-path:url(#SVGID_4_);fill:#C49730;}
	.st125{clip-path:url(#SVGID_4_);fill:#C69834;}
	.st126{clip-path:url(#SVGID_4_);fill:#C79B38;}
	.st127{clip-path:url(#SVGID_4_);fill:#C89B39;}
	.st128{clip-path:url(#SVGID_4_);fill:#C89C3A;}
	.st129{clip-path:url(#SVGID_4_);fill:#C99C3B;}
	.st130{clip-path:url(#SVGID_4_);fill:#CA9E3E;}
	.st131{clip-path:url(#SVGID_4_);fill:#CB9F40;}
	.st132{clip-path:url(#SVGID_4_);fill:#CBA041;}
	.st133{clip-path:url(#SVGID_4_);fill:#CCA042;}
	.st134{clip-path:url(#SVGID_4_);fill:#CCA143;}
	.st135{clip-path:url(#SVGID_4_);fill:#CDA244;}
	.st136{clip-path:url(#SVGID_4_);fill:#D2A850;}
	.st137{clip-path:url(#SVGID_4_);fill:#D3AA53;}
	.st138{clip-path:url(#SVGID_4_);fill:#D4AB55;}
	.st139{clip-path:url(#SVGID_4_);fill:#D7AE5A;}
	.st140{clip-path:url(#SVGID_4_);fill:#D8B15E;}
	.st141{clip-path:url(#SVGID_6_);}
	.st142{clip-path:url(#SVGID_8_);fill:#DBB464;}
	.st143{clip-path:url(#SVGID_8_);fill:#DBB363;}
	.st144{clip-path:url(#SVGID_8_);fill:#DAB362;}
	.st145{clip-path:url(#SVGID_8_);fill:#DAB261;}
	.st146{clip-path:url(#SVGID_8_);fill:#D9B260;}
	.st147{clip-path:url(#SVGID_8_);fill:#D9B15F;}
	.st148{clip-path:url(#SVGID_8_);fill:#D8B05E;}
	.st149{clip-path:url(#SVGID_8_);fill:#D8B05D;}
	.st150{clip-path:url(#SVGID_8_);fill:#D7AF5C;}
	.st151{clip-path:url(#SVGID_8_);fill:#D7AF5B;}
	.st152{clip-path:url(#SVGID_8_);fill:#D6AE59;}
	.st153{clip-path:url(#SVGID_8_);fill:#D6AD58;}
	.st154{clip-path:url(#SVGID_8_);fill:#D5AD57;}
	.st155{clip-path:url(#SVGID_8_);fill:#D5AC56;}
	.st156{clip-path:url(#SVGID_8_);fill:#D5AC55;}
	.st157{clip-path:url(#SVGID_8_);fill:#D4AB54;}
	.st158{clip-path:url(#SVGID_8_);fill:#D4AA53;}
	.st159{clip-path:url(#SVGID_8_);fill:#D3AA52;}
	.st160{clip-path:url(#SVGID_8_);fill:#D3A951;}
	.st161{clip-path:url(#SVGID_8_);fill:#D2A950;}
	.st162{clip-path:url(#SVGID_8_);fill:#D2A84F;}
	.st163{clip-path:url(#SVGID_8_);fill:#D1A74E;}
	.st164{clip-path:url(#SVGID_8_);fill:#D1A74D;}
	.st165{clip-path:url(#SVGID_8_);fill:#D0A64C;}
	.st166{clip-path:url(#SVGID_8_);fill:#D0A64B;}
	.st167{clip-path:url(#SVGID_8_);fill:#CFA54A;}
	.st168{clip-path:url(#SVGID_8_);fill:#CFA449;}
	.st169{clip-path:url(#SVGID_8_);fill:#CFA448;}
	.st170{clip-path:url(#SVGID_8_);fill:#CEA347;}
	.st171{clip-path:url(#SVGID_8_);fill:#CEA346;}
	.st172{clip-path:url(#SVGID_8_);fill:#CDA245;}
	.st173{clip-path:url(#SVGID_8_);fill:#CDA143;}
	.st174{clip-path:url(#SVGID_8_);fill:#CCA142;}
	.st175{clip-path:url(#SVGID_8_);fill:#CCA041;}
	.st176{clip-path:url(#SVGID_8_);fill:#CBA040;}
	.st177{clip-path:url(#SVGID_8_);fill:#CB9F3F;}
	.st178{clip-path:url(#SVGID_8_);fill:#CA9F3E;}
	.st179{clip-path:url(#SVGID_8_);fill:#CA9E3D;}
	.st180{clip-path:url(#SVGID_8_);fill:#C99D3C;}
	.st181{clip-path:url(#SVGID_8_);fill:#C99D3B;}
	.st182{clip-path:url(#SVGID_8_);fill:#C99C3A;}
	.st183{clip-path:url(#SVGID_8_);fill:#C89C39;}
	.st184{clip-path:url(#SVGID_8_);fill:#C89B38;}
	.st185{clip-path:url(#SVGID_8_);fill:#C79A37;}
	.st186{clip-path:url(#SVGID_8_);fill:#C79A36;}
	.st187{clip-path:url(#SVGID_8_);fill:#C69935;}
	.st188{clip-path:url(#SVGID_8_);fill:#C69934;}
	.st189{clip-path:url(#SVGID_8_);fill:#C59833;}
	.st190{clip-path:url(#SVGID_8_);fill:#C59732;}
	.st191{clip-path:url(#SVGID_8_);fill:#C59731;}
	.st192{clip-path:url(#SVGID_8_);fill:#C49630;}
	.st193{clip-path:url(#SVGID_8_);fill:#C4962F;}
	.st194{clip-path:url(#SVGID_8_);fill:#C3952E;}
	.st195{clip-path:url(#SVGID_8_);fill:#C3952D;}
	.st196{clip-path:url(#SVGID_8_);fill:#C2942C;}
	.st197{clip-path:url(#SVGID_8_);fill:#C2932B;}
	.st198{clip-path:url(#SVGID_8_);fill:#C1932A;}
	.st199{clip-path:url(#SVGID_8_);fill:#C19229;}
	.st200{clip-path:url(#SVGID_8_);fill:#C09228;}
	.st201{clip-path:url(#SVGID_8_);fill:#C09127;}
	.st202{clip-path:url(#SVGID_8_);fill:#C09026;}
	.st203{clip-path:url(#SVGID_8_);fill:#BF9025;}
	.st204{clip-path:url(#SVGID_8_);fill:#BF8F24;}
	.st205{clip-path:url(#SVGID_8_);fill:#BE8F23;}
	.st206{clip-path:url(#SVGID_8_);fill:#BE8E22;}
	.st207{clip-path:url(#SVGID_8_);fill:#BD8E21;}
	.st208{clip-path:url(#SVGID_8_);fill:#BD8D20;}
	.st209{clip-path:url(#SVGID_8_);fill:#BC8C1F;}
	.st210{clip-path:url(#SVGID_8_);fill:#BC8C1E;}
	.st211{clip-path:url(#SVGID_8_);fill:#BC8B1D;}
	.st212{clip-path:url(#SVGID_8_);fill:#BB8B1C;}
	.st213{clip-path:url(#SVGID_8_);fill:#BB8A1B;}
	.st214{clip-path:url(#SVGID_8_);fill:#BA8A1A;}
	.st215{clip-path:url(#SVGID_8_);fill:#BA8919;}
	.st216{clip-path:url(#SVGID_8_);fill:#B98818;}
	.st217{clip-path:url(#SVGID_8_);fill:#B98817;}
	.st218{clip-path:url(#SVGID_8_);fill:#B98716;}
	.st219{clip-path:url(#SVGID_8_);fill:#B88715;}
	.st220{clip-path:url(#SVGID_8_);fill:#B88614;}
	.st221{clip-path:url(#SVGID_8_);fill:#B78613;}
	.st222{clip-path:url(#SVGID_8_);fill:#B78512;}
	.st223{clip-path:url(#SVGID_8_);fill:#B68511;}
	.st224{clip-path:url(#SVGID_8_);fill:#B68410;}
	.st225{clip-path:url(#SVGID_8_);fill:#B6830F;}
	.st226{clip-path:url(#SVGID_8_);fill:#B5830E;}
	.st227{clip-path:url(#SVGID_8_);fill:#B5820D;}
	.st228{clip-path:url(#SVGID_8_);fill:#B4820C;}
	.st229{clip-path:url(#SVGID_8_);fill:#B4810B;}
	.st230{clip-path:url(#SVGID_8_);fill:#B3810A;}
	.st231{clip-path:url(#SVGID_8_);fill:#B38009;}
	.st232{clip-path:url(#SVGID_8_);fill:#B38008;}
	.st233{clip-path:url(#SVGID_8_);fill:#B27F07;}
	.st234{clip-path:url(#SVGID_8_);fill:#B27F06;}
	.st235{clip-path:url(#SVGID_8_);fill:#B17E05;}
	.st236{clip-path:url(#SVGID_8_);fill:#B17E04;}
	.st237{clip-path:url(#SVGID_8_);fill:#B17D03;}
	.st238{clip-path:url(#SVGID_8_);fill:#B07C03;}
	.st239{clip-path:url(#SVGID_8_);fill:#B07C02;}
	.st240{clip-path:url(#SVGID_8_);fill:#AF7B01;}
	.st241{clip-path:url(#SVGID_8_);fill:#AF7B00;}
	.st242{clip-path:url(#SVGID_8_);fill:#AF7C01;}
	.st243{clip-path:url(#SVGID_8_);fill:#B07D03;}
	.st244{clip-path:url(#SVGID_8_);fill:#B17D04;}
	.st245{clip-path:url(#SVGID_8_);fill:#B27E06;}
	.st246{clip-path:url(#SVGID_8_);fill:#B6840F;}
	.st247{clip-path:url(#SVGID_8_);fill:#B78511;}
	.st248{clip-path:url(#SVGID_8_);fill:#B88714;}
	.st249{clip-path:url(#SVGID_8_);fill:#B98816;}
	.st250{clip-path:url(#SVGID_8_);fill:#BA8918;}
	.st251{clip-path:url(#SVGID_8_);fill:#BB8A1A;}
	.st252{clip-path:url(#SVGID_8_);fill:#BB8B1B;}
	.st253{clip-path:url(#SVGID_8_);fill:#BC8C1D;}
	.st254{clip-path:url(#SVGID_8_);fill:#BD8D1F;}
	.st255{clip-path:url(#SVGID_8_);fill:#BE8E21;}
	.st256{clip-path:url(#SVGID_8_);fill:#BE8F22;}
	.st257{clip-path:url(#SVGID_8_);fill:#BF8F23;}
	.st258{clip-path:url(#SVGID_8_);fill:#BF9024;}
	.st259{clip-path:url(#SVGID_8_);fill:#C09126;}
	.st260{clip-path:url(#SVGID_8_);fill:#C19228;}
	.st261{clip-path:url(#SVGID_8_);fill:#C19329;}
	.st262{clip-path:url(#SVGID_8_);fill:#C2932A;}
	.st263{clip-path:url(#SVGID_8_);fill:#C2942B;}
	.st264{clip-path:url(#SVGID_8_);fill:#C3942C;}
	.st265{clip-path:url(#SVGID_8_);fill:#C49730;}
	.st266{clip-path:url(#SVGID_8_);fill:#C69834;}
	.st267{clip-path:url(#SVGID_8_);fill:#C79B38;}
	.st268{clip-path:url(#SVGID_8_);fill:#C89B39;}
	.st269{clip-path:url(#SVGID_8_);fill:#C89C3A;}
	.st270{clip-path:url(#SVGID_8_);fill:#C99C3B;}
	.st271{clip-path:url(#SVGID_8_);fill:#CA9E3E;}
	.st272{clip-path:url(#SVGID_8_);fill:#CB9F40;}
	.st273{clip-path:url(#SVGID_8_);fill:#CBA041;}
	.st274{clip-path:url(#SVGID_8_);fill:#CCA042;}
	.st275{clip-path:url(#SVGID_8_);fill:#CCA143;}
	.st276{clip-path:url(#SVGID_8_);fill:#CDA244;}
	.st277{clip-path:url(#SVGID_8_);fill:#D2A850;}
	.st278{clip-path:url(#SVGID_8_);fill:#D3AA53;}
	.st279{clip-path:url(#SVGID_8_);fill:#D4AB55;}
	.st280{clip-path:url(#SVGID_8_);fill:#D7AE5A;}
	.st281{clip-path:url(#SVGID_8_);fill:#D8B15E;}
	.st282{opacity:0.5;}
	.st283{fill:#FFFFFF;stroke:#FFFFFF;stroke-width:0.25;stroke-miterlimit:10;}
	.st284{clip-path:url(#SVGID_10_);}
	.st285{fill:#FFFFFF;}
</style>
<g>
	<g>
		<defs>
			<path id="SVGID_1_" d="M36,6h-5.6h-0.9H24h-6.7v1.2H24c0,0.3,0,0.7,0,1.1h-2.6v1.2H24c0,5.7-0.1,18.2-0.5,22.2
				c-0.2,1.7-2.1,6.3-6.9,6.3c-2.2,0-6-0.7-7.3-5.3h6.8v-1.2H7.8l0.2,0.7c0.9,4.5,4.1,7,8.7,7c3.1,0,5-1.6,6.1-2.9
				c1.2-1.5,1.9-3.3,2-4.5c0.4-4.1,0.5-16.5,0.5-22.3h1.4v31.6h-5.2v1.2h6.4V8.4h-2.6c0-0.5,0-0.8,0-1.1h4.3h0.9h4.3
				c0,0.3,0,0.7,0,1.1h-2.6v34.1h6.4v-1.2h-5.2V9.6h1.4c0,5.8,0.1,18.2,0.5,22.3c0.1,1.1,0.8,3,2,4.5c1.1,1.3,3,2.9,6.1,2.9
				c4.6,0,7.8-2.6,8.7-7l0.1-0.7h-8.4v1.2h6.8c-1.3,4.6-5.1,5.3-7.3,5.3c-4.8,0-6.7-4.6-6.9-6.3c-0.4-4-0.5-16.4-0.5-22.2h2.6V8.4
				H36c0-0.5,0-0.8,0-1.1h6.7V6H36z"/>
		</defs>
		<clipPath id="SVGID_2_">
			<use xlink:href="#SVGID_1_"  style="overflow:visible;"/>
		</clipPath>
		<g class="st0">
			<g>
				<defs>
					<rect id="SVGID_3_" x="7.8" y="6" width="44.4" height="36.5"/>
				</defs>
				<clipPath id="SVGID_4_">
					<use xlink:href="#SVGID_3_"  style="overflow:visible;"/>
				</clipPath>
				<rect x="7.8" y="6" class="st1" width="0.2" height="36.5"/>
				<rect x="8" y="6" class="st2" width="0.2" height="36.5"/>
				<rect x="8.1" y="6" class="st3" width="0.2" height="36.5"/>
				<rect x="8.3" y="6" class="st4" width="0.2" height="36.5"/>
				<rect x="8.5" y="6" class="st5" width="0.2" height="36.5"/>
				<rect x="8.6" y="6" class="st6" width="0.2" height="36.5"/>
				<rect x="8.8" y="6" class="st7" width="0.2" height="36.5"/>
				<rect x="9" y="6" class="st8" width="0.2" height="36.5"/>
				<rect x="9.1" y="6" class="st9" width="0.2" height="36.5"/>
				<rect x="9.3" y="6" class="st10" width="0.2" height="36.5"/>
				<rect x="9.5" y="6" class="st11" width="0.2" height="36.5"/>
				<rect x="9.6" y="6" class="st12" width="0.2" height="36.5"/>
				<rect x="9.8" y="6" class="st13" width="0.2" height="36.5"/>
				<rect x="10" y="6" class="st14" width="0.2" height="36.5"/>
				<rect x="10.1" y="6" class="st15" width="0.2" height="36.5"/>
				<rect x="10.3" y="6" class="st16" width="0.2" height="36.5"/>
				<rect x="10.4" y="6" class="st17" width="0.2" height="36.5"/>
				<rect x="10.6" y="6" class="st18" width="0.2" height="36.5"/>
				<rect x="10.8" y="6" class="st19" width="0.2" height="36.5"/>
				<rect x="10.9" y="6" class="st20" width="0.2" height="36.5"/>
				<rect x="11.1" y="6" class="st21" width="0.2" height="36.5"/>
				<rect x="11.3" y="6" class="st22" width="0.2" height="36.5"/>
				<rect x="11.4" y="6" class="st23" width="0.2" height="36.5"/>
				<rect x="11.6" y="6" class="st24" width="0.2" height="36.5"/>
				<rect x="11.8" y="6" class="st25" width="0.2" height="36.5"/>
				<rect x="11.9" y="6" class="st26" width="0.2" height="36.5"/>
				<rect x="12.1" y="6" class="st27" width="0.2" height="36.5"/>
				<rect x="12.3" y="6" class="st28" width="0.2" height="36.5"/>
				<rect x="12.4" y="6" class="st29" width="0.2" height="36.5"/>
				<rect x="12.6" y="6" class="st30" width="0.2" height="36.5"/>
				<rect x="12.8" y="6" class="st31" width="0.2" height="36.5"/>
				<rect x="12.9" y="6" class="st32" width="0.2" height="36.5"/>
				<rect x="13.1" y="6" class="st33" width="0.2" height="36.5"/>
				<rect x="13.3" y="6" class="st34" width="0.2" height="36.5"/>
				<rect x="13.4" y="6" class="st35" width="0.2" height="36.5"/>
				<rect x="13.6" y="6" class="st36" width="0.2" height="36.5"/>
				<rect x="13.8" y="6" class="st37" width="0.2" height="36.5"/>
				<rect x="13.9" y="6" class="st38" width="0.2" height="36.5"/>
				<rect x="14.1" y="6" class="st39" width="0.2" height="36.5"/>
				<rect x="14.3" y="6" class="st40" width="0.2" height="36.5"/>
				<rect x="14.4" y="6" class="st41" width="0.2" height="36.5"/>
				<rect x="14.6" y="6" class="st42" width="0.2" height="36.5"/>
				<rect x="14.8" y="6" class="st43" width="0.2" height="36.5"/>
				<rect x="14.9" y="6" class="st44" width="0.2" height="36.5"/>
				<rect x="15.1" y="6" class="st45" width="0.2" height="36.5"/>
				<rect x="15.3" y="6" class="st46" width="0.2" height="36.5"/>
				<rect x="15.4" y="6" class="st47" width="0.2" height="36.5"/>
				<rect x="15.6" y="6" class="st48" width="0.2" height="36.5"/>
				<rect x="15.8" y="6" class="st49" width="0.2" height="36.5"/>
				<rect x="15.9" y="6" class="st50" width="0.2" height="36.5"/>
				<rect x="16.1" y="6" class="st51" width="0.2" height="36.5"/>
				<rect x="16.3" y="6" class="st52" width="0.2" height="36.5"/>
				<rect x="16.4" y="6" class="st53" width="0.2" height="36.5"/>
				<rect x="16.6" y="6" class="st54" width="0.2" height="36.5"/>
				<rect x="16.8" y="6" class="st55" width="0.2" height="36.5"/>
				<rect x="16.9" y="6" class="st56" width="0.2" height="36.5"/>
				<rect x="17.1" y="6" class="st57" width="0.2" height="36.5"/>
				<rect x="17.3" y="6" class="st58" width="0.2" height="36.5"/>
				<rect x="17.4" y="6" class="st59" width="0.2" height="36.5"/>
				<rect x="17.6" y="6" class="st60" width="0.2" height="36.5"/>
				<rect x="17.7" y="6" class="st61" width="0.2" height="36.5"/>
				<rect x="17.9" y="6" class="st62" width="0.2" height="36.5"/>
				<rect x="18.1" y="6" class="st63" width="0.2" height="36.5"/>
				<rect x="18.2" y="6" class="st64" width="0.2" height="36.5"/>
				<rect x="18.4" y="6" class="st65" width="0.2" height="36.5"/>
				<rect x="18.6" y="6" class="st66" width="0.2" height="36.5"/>
				<rect x="18.7" y="6" class="st67" width="0.2" height="36.5"/>
				<rect x="18.9" y="6" class="st68" width="0.2" height="36.5"/>
				<rect x="19.1" y="6" class="st69" width="0.2" height="36.5"/>
				<rect x="19.2" y="6" class="st70" width="0.2" height="36.5"/>
				<rect x="19.4" y="6" class="st71" width="0.2" height="36.5"/>
				<rect x="19.6" y="6" class="st72" width="0.2" height="36.5"/>
				<rect x="19.7" y="6" class="st73" width="0.2" height="36.5"/>
				<rect x="19.9" y="6" class="st74" width="0.2" height="36.5"/>
				<rect x="20.1" y="6" class="st75" width="0.2" height="36.5"/>
				<rect x="20.2" y="6" class="st76" width="0.2" height="36.5"/>
				<rect x="20.4" y="6" class="st77" width="0.2" height="36.5"/>
				<rect x="20.6" y="6" class="st78" width="0.2" height="36.5"/>
				<rect x="20.7" y="6" class="st79" width="0.2" height="36.5"/>
				<rect x="20.9" y="6" class="st80" width="0.2" height="36.5"/>
				<rect x="21.1" y="6" class="st81" width="0.2" height="36.5"/>
				<rect x="21.2" y="6" class="st82" width="0.2" height="36.5"/>
				<rect x="21.4" y="6" class="st83" width="0.2" height="36.5"/>
				<rect x="21.6" y="6" class="st84" width="0.2" height="36.5"/>
				<rect x="21.7" y="6" class="st85" width="0.2" height="36.5"/>
				<rect x="21.9" y="6" class="st86" width="0.2" height="36.5"/>
				<rect x="22.1" y="6" class="st87" width="0.2" height="36.5"/>
				<rect x="22.2" y="6" class="st88" width="0.2" height="36.5"/>
				<rect x="22.4" y="6" class="st89" width="0.2" height="36.5"/>
				<rect x="22.6" y="6" class="st90" width="0.2" height="36.5"/>
				<rect x="22.7" y="6" class="st91" width="0.2" height="36.5"/>
				<rect x="22.9" y="6" class="st92" width="0.2" height="36.5"/>
				<rect x="23.1" y="6" class="st93" width="0.2" height="36.5"/>
				<rect x="23.2" y="6" class="st94" width="0.2" height="36.5"/>
				<rect x="23.4" y="6" class="st95" width="0.2" height="36.5"/>
				<rect x="23.6" y="6" class="st96" width="0.2" height="36.5"/>
				<rect x="23.7" y="6" class="st97" width="0.2" height="36.5"/>
				<rect x="23.9" y="6" class="st98" width="0.2" height="36.5"/>
				<rect x="24.1" y="6" class="st99" width="0.2" height="36.5"/>
				<rect x="24.2" y="6" class="st100" width="0.2" height="36.5"/>
				<rect x="24.4" y="6" class="st100" width="0.2" height="36.5"/>
				<rect x="24.6" y="6" class="st101" width="0.2" height="36.5"/>
				<rect x="24.7" y="6" class="st98" width="0.2" height="36.5"/>
				<rect x="24.9" y="6" class="st102" width="0.2" height="36.5"/>
				<rect x="25" y="6" class="st103" width="0.2" height="36.5"/>
				<rect x="25.2" y="6" class="st94" width="0.2" height="36.5"/>
				<rect x="25.4" y="6" class="st104" width="0.2" height="36.5"/>
				<rect x="25.5" y="6" class="st92" width="0.2" height="36.5"/>
				<rect x="25.7" y="6" class="st91" width="0.2" height="36.5"/>
				<rect x="25.9" y="6" class="st90" width="0.2" height="36.5"/>
				<rect x="26" y="6" class="st89" width="0.2" height="36.5"/>
				<rect x="26.2" y="6" class="st88" width="0.2" height="36.5"/>
				<rect x="26.4" y="6" class="st87" width="0.2" height="36.5"/>
				<rect x="26.5" y="6" class="st86" width="0.2" height="36.5"/>
				<rect x="26.7" y="6" class="st85" width="0.2" height="36.5"/>
				<rect x="26.9" y="6" class="st105" width="0.2" height="36.5"/>
				<rect x="27" y="6" class="st83" width="0.2" height="36.5"/>
				<rect x="27.2" y="6" class="st106" width="0.2" height="36.5"/>
				<rect x="27.4" y="6" class="st81" width="0.2" height="36.5"/>
				<rect x="27.5" y="6" class="st80" width="0.2" height="36.5"/>
				<rect x="27.7" y="6" class="st107" width="0.2" height="36.5"/>
				<rect x="27.9" y="6" class="st78" width="0.2" height="36.5"/>
				<rect x="28" y="6" class="st108" width="0.2" height="36.5"/>
				<rect x="28.2" y="6" class="st76" width="0.2" height="36.5"/>
				<rect x="28.4" y="6" class="st109" width="0.2" height="36.5"/>
				<rect x="28.5" y="6" class="st74" width="0.2" height="36.5"/>
				<rect x="28.7" y="6" class="st110" width="0.2" height="36.5"/>
				<rect x="28.9" y="6" class="st111" width="0.2" height="36.5"/>
				<rect x="29" y="6" class="st71" width="0.2" height="36.5"/>
				<rect x="29.2" y="6" class="st112" width="0.2" height="36.5"/>
				<rect x="29.4" y="6" class="st69" width="0.2" height="36.5"/>
				<rect x="29.5" y="6" class="st113" width="0.2" height="36.5"/>
				<rect x="29.7" y="6" class="st67" width="0.2" height="36.5"/>
				<rect x="29.9" y="6" class="st114" width="0.2" height="36.5"/>
				<rect x="30" y="6" class="st115" width="0.2" height="36.5"/>
				<rect x="30.2" y="6" class="st116" width="0.2" height="36.5"/>
				<rect x="30.4" y="6" class="st117" width="0.2" height="36.5"/>
				<rect x="30.5" y="6" class="st62" width="0.2" height="36.5"/>
				<rect x="30.7" y="6" class="st118" width="0.2" height="36.5"/>
				<rect x="30.9" y="6" class="st60" width="0.2" height="36.5"/>
				<rect x="31" y="6" class="st119" width="0.2" height="36.5"/>
				<rect x="31.2" y="6" class="st120" width="0.2" height="36.5"/>
				<rect x="31.4" y="6" class="st121" width="0.2" height="36.5"/>
				<rect x="31.5" y="6" class="st122" width="0.2" height="36.5"/>
				<rect x="31.7" y="6" class="st123" width="0.2" height="36.5"/>
				<rect x="31.9" y="6" class="st54" width="0.2" height="36.5"/>
				<rect x="32" y="6" class="st53" width="0.2" height="36.5"/>
				<rect x="32.2" y="6" class="st52" width="0.2" height="36.5"/>
				<rect x="32.3" y="6" class="st124" width="0.2" height="36.5"/>
				<rect x="32.5" y="6" class="st50" width="0.2" height="36.5"/>
				<rect x="32.7" y="6" class="st48" width="0.2" height="36.5"/>
				<rect x="32.8" y="6" class="st125" width="0.2" height="36.5"/>
				<rect x="33" y="6" class="st46" width="0.2" height="36.5"/>
				<rect x="33.2" y="6" class="st45" width="0.2" height="36.5"/>
				<rect x="33.3" y="6" class="st44" width="0.2" height="36.5"/>
				<rect x="33.5" y="6" class="st126" width="0.2" height="36.5"/>
				<rect x="33.7" y="6" class="st127" width="0.2" height="36.5"/>
				<rect x="33.8" y="6" class="st128" width="0.2" height="36.5"/>
				<rect x="34" y="6" class="st129" width="0.2" height="36.5"/>
				<rect x="34.2" y="6" class="st39" width="0.2" height="36.5"/>
				<rect x="34.3" y="6" class="st38" width="0.2" height="36.5"/>
				<rect x="34.5" y="6" class="st130" width="0.2" height="36.5"/>
				<rect x="34.7" y="6" class="st36" width="0.2" height="36.5"/>
				<rect x="34.8" y="6" class="st131" width="0.2" height="36.5"/>
				<rect x="35" y="6" class="st132" width="0.2" height="36.5"/>
				<rect x="35.2" y="6" class="st133" width="0.2" height="36.5"/>
				<rect x="35.3" y="6" class="st134" width="0.2" height="36.5"/>
				<rect x="35.5" y="6" class="st135" width="0.2" height="36.5"/>
				<rect x="35.7" y="6" class="st31" width="0.2" height="36.5"/>
				<rect x="35.8" y="6" class="st30" width="0.2" height="36.5"/>
				<rect x="36" y="6" class="st29" width="0.2" height="36.5"/>
				<rect x="36.2" y="6" class="st28" width="0.2" height="36.5"/>
				<rect x="36.3" y="6" class="st27" width="0.2" height="36.5"/>
				<rect x="36.5" y="6" class="st26" width="0.2" height="36.5"/>
				<rect x="36.7" y="6" class="st25" width="0.2" height="36.5"/>
				<rect x="36.8" y="6" class="st24" width="0.2" height="36.5"/>
				<rect x="37" y="6" class="st23" width="0.2" height="36.5"/>
				<rect x="37.2" y="6" class="st22" width="0.2" height="36.5"/>
				<rect x="37.3" y="6" class="st21" width="0.2" height="36.5"/>
				<rect x="37.5" y="6" class="st136" width="0.2" height="36.5"/>
				<rect x="37.7" y="6" class="st19" width="0.2" height="36.5"/>
				<rect x="37.8" y="6" class="st18" width="0.2" height="36.5"/>
				<rect x="38" y="6" class="st137" width="0.2" height="36.5"/>
				<rect x="38.2" y="6" class="st16" width="0.2" height="36.5"/>
				<rect x="38.3" y="6" class="st138" width="0.2" height="36.5"/>
				<rect x="38.5" y="6" class="st14" width="0.2" height="36.5"/>
				<rect x="38.7" y="6" class="st13" width="0.2" height="36.5"/>
				<rect x="38.8" y="6" class="st12" width="0.2" height="36.5"/>
				<rect x="39" y="6" class="st11" width="0.2" height="36.5"/>
				<rect x="39.2" y="6" class="st139" width="0.2" height="36.5"/>
				<rect x="39.3" y="6" class="st10" width="0.2" height="36.5"/>
				<rect x="39.5" y="6" class="st9" width="0.2" height="36.5"/>
				<rect x="39.6" y="6" class="st8" width="0.2" height="36.5"/>
				<rect x="39.8" y="6" class="st140" width="0.2" height="36.5"/>
				<rect x="40" y="6" class="st6" width="0.2" height="36.5"/>
				<rect x="40.1" y="6" class="st5" width="0.2" height="36.5"/>
				<rect x="40.3" y="6" class="st4" width="0.2" height="36.5"/>
				<rect x="40.5" y="6" class="st3" width="0.2" height="36.5"/>
				<rect x="40.6" y="6" class="st2" width="0.2" height="36.5"/>
				<rect x="40.8" y="6" class="st1" width="0.2" height="36.5"/>
				<rect x="41" y="6" class="st1" width="11.2" height="36.5"/>
			</g>
		</g>
	</g>
	<g>
		<defs>
			<rect id="SVGID_5_" x="18.3" y="43.6" width="23.4" height="1.2"/>
		</defs>
		<clipPath id="SVGID_6_">
			<use xlink:href="#SVGID_5_"  style="overflow:visible;"/>
		</clipPath>
		<g class="st141">
			<g>
				<defs>
					<rect id="SVGID_7_" x="18.3" y="43.6" width="23.4" height="1.2"/>
				</defs>
				<clipPath id="SVGID_8_">
					<use xlink:href="#SVGID_7_"  style="overflow:visible;"/>
				</clipPath>
				<rect x="18.3" y="43.6" class="st142" width="0.1" height="1.2"/>
				<rect x="18.4" y="43.6" class="st143" width="0.1" height="1.2"/>
				<rect x="18.5" y="43.6" class="st144" width="0.1" height="1.2"/>
				<rect x="18.6" y="43.6" class="st145" width="0.1" height="1.2"/>
				<rect x="18.6" y="43.6" class="st146" width="0.1" height="1.2"/>
				<rect x="18.7" y="43.6" class="st147" width="0.1" height="1.2"/>
				<rect x="18.8" y="43.6" class="st148" width="0.1" height="1.2"/>
				<rect x="18.9" y="43.6" class="st149" width="0.1" height="1.2"/>
				<rect x="19" y="43.6" class="st150" width="0.1" height="1.2"/>
				<rect x="19.1" y="43.6" class="st151" width="0.1" height="1.2"/>
				<rect x="19.2" y="43.6" class="st152" width="0.1" height="1.2"/>
				<rect x="19.3" y="43.6" class="st153" width="0.1" height="1.2"/>
				<rect x="19.3" y="43.6" class="st154" width="0.1" height="1.2"/>
				<rect x="19.4" y="43.6" class="st155" width="0.1" height="1.2"/>
				<rect x="19.5" y="43.6" class="st156" width="0.1" height="1.2"/>
				<rect x="19.6" y="43.6" class="st157" width="0.1" height="1.2"/>
				<rect x="19.7" y="43.6" class="st158" width="0.1" height="1.2"/>
				<rect x="19.8" y="43.6" class="st159" width="0.1" height="1.2"/>
				<rect x="19.9" y="43.6" class="st160" width="0.1" height="1.2"/>
				<rect x="20" y="43.6" class="st161" width="0.1" height="1.2"/>
				<rect x="20" y="43.6" class="st162" width="0.1" height="1.2"/>
				<rect x="20.1" y="43.6" class="st163" width="0.1" height="1.2"/>
				<rect x="20.2" y="43.6" class="st164" width="0.1" height="1.2"/>
				<rect x="20.3" y="43.6" class="st165" width="0.1" height="1.2"/>
				<rect x="20.4" y="43.6" class="st166" width="0.1" height="1.2"/>
				<rect x="20.5" y="43.6" class="st167" width="0.1" height="1.2"/>
				<rect x="20.6" y="43.6" class="st168" width="0.1" height="1.2"/>
				<rect x="20.7" y="43.6" class="st169" width="0.1" height="1.2"/>
				<rect x="20.7" y="43.6" class="st170" width="0.1" height="1.2"/>
				<rect x="20.8" y="43.6" class="st171" width="0.1" height="1.2"/>
				<rect x="20.9" y="43.6" class="st172" width="0.1" height="1.2"/>
				<rect x="21" y="43.6" class="st173" width="0.1" height="1.2"/>
				<rect x="21.1" y="43.6" class="st174" width="0.1" height="1.2"/>
				<rect x="21.2" y="43.6" class="st175" width="0.1" height="1.2"/>
				<rect x="21.3" y="43.6" class="st176" width="0.1" height="1.2"/>
				<rect x="21.4" y="43.6" class="st177" width="0.1" height="1.2"/>
				<rect x="21.4" y="43.6" class="st178" width="0.1" height="1.2"/>
				<rect x="21.5" y="43.6" class="st179" width="0.1" height="1.2"/>
				<rect x="21.6" y="43.6" class="st180" width="0.1" height="1.2"/>
				<rect x="21.7" y="43.6" class="st181" width="0.1" height="1.2"/>
				<rect x="21.8" y="43.6" class="st182" width="0.1" height="1.2"/>
				<rect x="21.9" y="43.6" class="st183" width="0.1" height="1.2"/>
				<rect x="22" y="43.6" class="st184" width="0.1" height="1.2"/>
				<rect x="22.1" y="43.6" class="st185" width="0.1" height="1.2"/>
				<rect x="22.1" y="43.6" class="st186" width="0.1" height="1.2"/>
				<rect x="22.2" y="43.6" class="st187" width="0.1" height="1.2"/>
				<rect x="22.3" y="43.6" class="st188" width="0.1" height="1.2"/>
				<rect x="22.4" y="43.6" class="st189" width="0.1" height="1.2"/>
				<rect x="22.5" y="43.6" class="st190" width="0.1" height="1.2"/>
				<rect x="22.6" y="43.6" class="st191" width="0.1" height="1.2"/>
				<rect x="22.7" y="43.6" class="st192" width="0.1" height="1.2"/>
				<rect x="22.8" y="43.6" class="st193" width="0.1" height="1.2"/>
				<rect x="22.8" y="43.6" class="st194" width="0.1" height="1.2"/>
				<rect x="22.9" y="43.6" class="st195" width="0.1" height="1.2"/>
				<rect x="23" y="43.6" class="st196" width="0.1" height="1.2"/>
				<rect x="23.1" y="43.6" class="st197" width="0.1" height="1.2"/>
				<rect x="23.2" y="43.6" class="st198" width="0.1" height="1.2"/>
				<rect x="23.3" y="43.6" class="st199" width="0.1" height="1.2"/>
				<rect x="23.4" y="43.6" class="st200" width="0.1" height="1.2"/>
				<rect x="23.5" y="43.6" class="st201" width="0.1" height="1.2"/>
				<rect x="23.5" y="43.6" class="st202" width="0.1" height="1.2"/>
				<rect x="23.6" y="43.6" class="st203" width="0.1" height="1.2"/>
				<rect x="23.7" y="43.6" class="st204" width="0.1" height="1.2"/>
				<rect x="23.8" y="43.6" class="st205" width="0.1" height="1.2"/>
				<rect x="23.9" y="43.6" class="st206" width="0.1" height="1.2"/>
				<rect x="24" y="43.6" class="st207" width="0.1" height="1.2"/>
				<rect x="24.1" y="43.6" class="st208" width="0.1" height="1.2"/>
				<rect x="24.2" y="43.6" class="st209" width="0.1" height="1.2"/>
				<rect x="24.2" y="43.6" class="st210" width="0.1" height="1.2"/>
				<rect x="24.3" y="43.6" class="st211" width="0.1" height="1.2"/>
				<rect x="24.4" y="43.6" class="st212" width="0.1" height="1.2"/>
				<rect x="24.5" y="43.6" class="st213" width="0.1" height="1.2"/>
				<rect x="24.6" y="43.6" class="st214" width="0.1" height="1.2"/>
				<rect x="24.7" y="43.6" class="st215" width="0.1" height="1.2"/>
				<rect x="24.8" y="43.6" class="st216" width="0.1" height="1.2"/>
				<rect x="24.9" y="43.6" class="st217" width="0.1" height="1.2"/>
				<rect x="24.9" y="43.6" class="st218" width="0.1" height="1.2"/>
				<rect x="25" y="43.6" class="st219" width="0.1" height="1.2"/>
				<rect x="25.1" y="43.6" class="st220" width="0.1" height="1.2"/>
				<rect x="25.2" y="43.6" class="st221" width="0.1" height="1.2"/>
				<rect x="25.3" y="43.6" class="st222" width="0.1" height="1.2"/>
				<rect x="25.4" y="43.6" class="st223" width="0.1" height="1.2"/>
				<rect x="25.5" y="43.6" class="st224" width="0.1" height="1.2"/>
				<rect x="25.6" y="43.6" class="st225" width="0.1" height="1.2"/>
				<rect x="25.6" y="43.6" class="st226" width="0.1" height="1.2"/>
				<rect x="25.7" y="43.6" class="st227" width="0.1" height="1.2"/>
				<rect x="25.8" y="43.6" class="st228" width="0.1" height="1.2"/>
				<rect x="25.9" y="43.6" class="st229" width="0.1" height="1.2"/>
				<rect x="26" y="43.6" class="st230" width="0.1" height="1.2"/>
				<rect x="26.1" y="43.6" class="st231" width="0.1" height="1.2"/>
				<rect x="26.2" y="43.6" class="st232" width="0.1" height="1.2"/>
				<rect x="26.3" y="43.6" class="st233" width="0.1" height="1.2"/>
				<rect x="26.3" y="43.6" class="st234" width="0.1" height="1.2"/>
				<rect x="26.4" y="43.6" class="st235" width="0.1" height="1.2"/>
				<rect x="26.5" y="43.6" class="st236" width="0.1" height="1.2"/>
				<rect x="26.6" y="43.6" class="st237" width="0.1" height="1.2"/>
				<rect x="26.7" y="43.6" class="st238" width="0.1" height="1.2"/>
				<rect x="26.8" y="43.6" class="st239" width="0.1" height="1.2"/>
				<rect x="26.9" y="43.6" class="st240" width="0.1" height="1.2"/>
				<rect x="26.9" y="43.6" class="st241" width="0.1" height="1.2"/>
				<rect x="27" y="43.6" class="st241" width="0.1" height="1.2"/>
				<rect x="27.1" y="43.6" class="st242" width="0.1" height="1.2"/>
				<rect x="27.2" y="43.6" class="st239" width="0.1" height="1.2"/>
				<rect x="27.3" y="43.6" class="st243" width="0.1" height="1.2"/>
				<rect x="27.4" y="43.6" class="st244" width="0.1" height="1.2"/>
				<rect x="27.5" y="43.6" class="st235" width="0.1" height="1.2"/>
				<rect x="27.6" y="43.6" class="st245" width="0.1" height="1.2"/>
				<rect x="27.6" y="43.6" class="st233" width="0.1" height="1.2"/>
				<rect x="27.7" y="43.6" class="st232" width="0.1" height="1.2"/>
				<rect x="27.8" y="43.6" class="st231" width="0.1" height="1.2"/>
				<rect x="27.9" y="43.6" class="st230" width="0.1" height="1.2"/>
				<rect x="28" y="43.6" class="st229" width="0.1" height="1.2"/>
				<rect x="28.1" y="43.6" class="st228" width="0.1" height="1.2"/>
				<rect x="28.2" y="43.6" class="st227" width="0.1" height="1.2"/>
				<rect x="28.3" y="43.6" class="st226" width="0.1" height="1.2"/>
				<rect x="28.3" y="43.6" class="st246" width="0.1" height="1.2"/>
				<rect x="28.4" y="43.6" class="st224" width="0.1" height="1.2"/>
				<rect x="28.5" y="43.6" class="st247" width="0.1" height="1.2"/>
				<rect x="28.6" y="43.6" class="st222" width="0.1" height="1.2"/>
				<rect x="28.7" y="43.6" class="st221" width="0.1" height="1.2"/>
				<rect x="28.8" y="43.6" class="st248" width="0.1" height="1.2"/>
				<rect x="28.9" y="43.6" class="st219" width="0.1" height="1.2"/>
				<rect x="29" y="43.6" class="st249" width="0.1" height="1.2"/>
				<rect x="29" y="43.6" class="st217" width="0.1" height="1.2"/>
				<rect x="29.1" y="43.6" class="st250" width="0.1" height="1.2"/>
				<rect x="29.2" y="43.6" class="st215" width="0.1" height="1.2"/>
				<rect x="29.3" y="43.6" class="st251" width="0.1" height="1.2"/>
				<rect x="29.4" y="43.6" class="st252" width="0.1" height="1.2"/>
				<rect x="29.5" y="43.6" class="st212" width="0.1" height="1.2"/>
				<rect x="29.6" y="43.6" class="st253" width="0.1" height="1.2"/>
				<rect x="29.7" y="43.6" class="st210" width="0.1" height="1.2"/>
				<rect x="29.7" y="43.6" class="st254" width="0.1" height="1.2"/>
				<rect x="29.8" y="43.6" class="st208" width="0.1" height="1.2"/>
				<rect x="29.9" y="43.6" class="st255" width="0.1" height="1.2"/>
				<rect x="30" y="43.6" class="st256" width="0.1" height="1.2"/>
				<rect x="30.1" y="43.6" class="st257" width="0.1" height="1.2"/>
				<rect x="30.2" y="43.6" class="st258" width="0.1" height="1.2"/>
				<rect x="30.3" y="43.6" class="st203" width="0.1" height="1.2"/>
				<rect x="30.4" y="43.6" class="st259" width="0.1" height="1.2"/>
				<rect x="30.4" y="43.6" class="st201" width="0.1" height="1.2"/>
				<rect x="30.5" y="43.6" class="st260" width="0.1" height="1.2"/>
				<rect x="30.6" y="43.6" class="st261" width="0.1" height="1.2"/>
				<rect x="30.7" y="43.6" class="st262" width="0.1" height="1.2"/>
				<rect x="30.8" y="43.6" class="st263" width="0.1" height="1.2"/>
				<rect x="30.9" y="43.6" class="st264" width="0.1" height="1.2"/>
				<rect x="31" y="43.6" class="st195" width="0.1" height="1.2"/>
				<rect x="31.1" y="43.6" class="st194" width="0.1" height="1.2"/>
				<rect x="31.1" y="43.6" class="st193" width="0.1" height="1.2"/>
				<rect x="31.2" y="43.6" class="st265" width="0.1" height="1.2"/>
				<rect x="31.3" y="43.6" class="st191" width="0.1" height="1.2"/>
				<rect x="31.4" y="43.6" class="st189" width="0.1" height="1.2"/>
				<rect x="31.5" y="43.6" class="st266" width="0.1" height="1.2"/>
				<rect x="31.6" y="43.6" class="st187" width="0.1" height="1.2"/>
				<rect x="31.7" y="43.6" class="st186" width="0.1" height="1.2"/>
				<rect x="31.8" y="43.6" class="st185" width="0.1" height="1.2"/>
				<rect x="31.8" y="43.6" class="st267" width="0.1" height="1.2"/>
				<rect x="31.9" y="43.6" class="st268" width="0.1" height="1.2"/>
				<rect x="32" y="43.6" class="st269" width="0.1" height="1.2"/>
				<rect x="32.1" y="43.6" class="st270" width="0.1" height="1.2"/>
				<rect x="32.2" y="43.6" class="st180" width="0.1" height="1.2"/>
				<rect x="32.3" y="43.6" class="st179" width="0.1" height="1.2"/>
				<rect x="32.4" y="43.6" class="st271" width="0.1" height="1.2"/>
				<rect x="32.5" y="43.6" class="st177" width="0.1" height="1.2"/>
				<rect x="32.5" y="43.6" class="st272" width="0.1" height="1.2"/>
				<rect x="32.6" y="43.6" class="st273" width="0.1" height="1.2"/>
				<rect x="32.7" y="43.6" class="st274" width="0.1" height="1.2"/>
				<rect x="32.8" y="43.6" class="st275" width="0.1" height="1.2"/>
				<rect x="32.9" y="43.6" class="st276" width="0.1" height="1.2"/>
				<rect x="33" y="43.6" class="st172" width="0.1" height="1.2"/>
				<rect x="33.1" y="43.6" class="st171" width="0.1" height="1.2"/>
				<rect x="33.2" y="43.6" class="st170" width="0.1" height="1.2"/>
				<rect x="33.2" y="43.6" class="st169" width="0.1" height="1.2"/>
				<rect x="33.3" y="43.6" class="st168" width="0.1" height="1.2"/>
				<rect x="33.4" y="43.6" class="st167" width="0.1" height="1.2"/>
				<rect x="33.5" y="43.6" class="st166" width="0.1" height="1.2"/>
				<rect x="33.6" y="43.6" class="st165" width="0.1" height="1.2"/>
				<rect x="33.7" y="43.6" class="st164" width="0.1" height="1.2"/>
				<rect x="33.8" y="43.6" class="st163" width="0.1" height="1.2"/>
				<rect x="33.9" y="43.6" class="st162" width="0.1" height="1.2"/>
				<rect x="33.9" y="43.6" class="st277" width="0.1" height="1.2"/>
				<rect x="34" y="43.6" class="st160" width="0.1" height="1.2"/>
				<rect x="34.1" y="43.6" class="st159" width="0.1" height="1.2"/>
				<rect x="34.2" y="43.6" class="st278" width="0.1" height="1.2"/>
				<rect x="34.3" y="43.6" class="st157" width="0.1" height="1.2"/>
				<rect x="34.4" y="43.6" class="st279" width="0.1" height="1.2"/>
				<rect x="34.5" y="43.6" class="st155" width="0.1" height="1.2"/>
				<rect x="34.6" y="43.6" class="st154" width="0.1" height="1.2"/>
				<rect x="34.6" y="43.6" class="st153" width="0.1" height="1.2"/>
				<rect x="34.7" y="43.6" class="st152" width="0.1" height="1.2"/>
				<rect x="34.8" y="43.6" class="st280" width="0.1" height="1.2"/>
				<rect x="34.9" y="43.6" class="st151" width="0.1" height="1.2"/>
				<rect x="35" y="43.6" class="st150" width="0.1" height="1.2"/>
				<rect x="35.1" y="43.6" class="st149" width="0.1" height="1.2"/>
				<rect x="35.2" y="43.6" class="st281" width="0.1" height="1.2"/>
				<rect x="35.3" y="43.6" class="st147" width="0.1" height="1.2"/>
				<rect x="35.3" y="43.6" class="st146" width="0.1" height="1.2"/>
				<rect x="35.4" y="43.6" class="st145" width="0.1" height="1.2"/>
				<rect x="35.5" y="43.6" class="st144" width="0.1" height="1.2"/>
				<rect x="35.6" y="43.6" class="st143" width="0.1" height="1.2"/>
				<rect x="35.7" y="43.6" class="st142" width="0.1" height="1.2"/>
				<rect x="35.8" y="43.6" class="st142" width="5.9" height="1.2"/>
				<rect x="41.7" y="43.6" class="st142" width="0" height="1.2"/>
			</g>
		</g>
	</g>
	<g class="st282">
		<g>
			<g>
				<path class="st283" d="M6.2,70.7c0,0.7-0.1,1-0.3,1.4c-0.3,0.5-0.9,0.7-1.6,0.7c-0.8,0-1.6-0.3-1.7-1.2h0.7
					c0.1,0.5,0.4,0.7,1.1,0.7c0.8,0,1.2-0.4,1.2-1.3l0-0.5c-0.3,0.5-0.7,0.7-1.3,0.7c-1.1,0-1.8-0.8-1.8-2.1C2.4,68,3,67,4.3,67
					c0.6,0,1,0.3,1.3,0.7v-0.6h0.6V70.7z M3.1,69.1c0,0.9,0.5,1.5,1.2,1.5c0.7,0,1.2-0.6,1.2-1.6c0-0.9-0.5-1.5-1.2-1.5
					C3.6,67.5,3.1,68.1,3.1,69.1z"/>
				<path class="st283" d="M18,67.7c-0.1,0-0.1,0-0.2,0c-1.1,0-1.3,0.8-1.3,1.8v1.7h-0.7v-4.1h0.6V68c0.3-0.7,0.8-1,1.5-1V67.7z"/>
				<path class="st283" d="M31,69.1c0,1.4-0.7,2.2-2,2.2c-1.3,0-2-0.8-2-2.2s0.8-2.2,2-2.2C30.3,67,31,67.7,31,69.1z M27.7,69.1
					c0,1,0.5,1.6,1.3,1.6c0.8,0,1.3-0.6,1.3-1.6c0-1-0.5-1.6-1.3-1.6S27.7,68.1,27.7,69.1z"/>
				<path class="st283" d="M43.9,71.2h-0.6v-0.6c-0.4,0.5-0.8,0.8-1.4,0.8c-0.9,0-1.4-0.5-1.4-1.4v-2.8h0.7v2.6c0,0.6,0.2,1,0.9,1
					c0.9,0,1.2-0.6,1.2-1.5v-2.1h0.7V71.2z"/>
				<path class="st283" d="M54.3,67.6c0.3-0.5,0.8-0.7,1.4-0.7c1.1,0,1.9,0.8,1.9,2.1c0,1.3-0.7,2.2-1.8,2.2c-0.6,0-1-0.2-1.4-0.7
					v2.1h-0.7v-5.7h0.6V67.6z M54.3,69.1c0,1,0.5,1.6,1.3,1.6c0.8,0,1.2-0.6,1.2-1.6c0-1-0.5-1.6-1.3-1.6
					C54.8,67.5,54.3,68.1,54.3,69.1z"/>
			</g>
		</g>
	</g>
	<g>
		<defs>
			<path id="SVGID_9_" d="M2.1,54.8v8.8H4v-3.6h3.7v-1.5H4v-2h4.3v-1.6H2.1z M11.1,63.7h2v-8.8h-2V63.7z M18.3,56.5h1.4
				c1.8,0,2.6,1,2.6,2.8c0,1.8-0.8,2.8-2.6,2.8h-1.4V56.5z M16.4,54.8v8.8h3.6c2.7,0,4.3-1.6,4.3-4.4c0-2.9-1.5-4.4-4.3-4.4H16.4z
				 M27.2,54.8v8.8h6.7v-1.6h-4.8v-2.2h4.3v-1.5h-4.3v-1.9h4.7v-1.6H27.2z M36.8,54.8v8.8h6.3V62h-4.3v-7.2H36.8z M45.8,63.7h2v-8.8
				h-2V63.7z M50.8,57.3c0,1.8,1.4,2.2,2.8,2.6c1.8,0.5,2.4,0.6,2.4,1.3c0,0.7-0.6,1.2-1.6,1.2c-1.2,0-2-0.5-2-1.7h-1.9
				c0,2,1.4,3.2,3.8,3.2c1.8,0,3.6-0.8,3.6-2.9c0-1.5-1-2.1-2.6-2.5c-1.8-0.5-2.7-0.6-2.7-1.3c0-0.6,0.5-1,1.4-1
				c1,0,1.6,0.5,1.7,1.3h1.8c0-2-1.5-2.8-3.4-2.8C52.2,54.7,50.8,55.7,50.8,57.3"/>
		</defs>
		<use xlink:href="#SVGID_9_"  style="overflow:visible;fill:#FFFFFF;"/>
		<clipPath id="SVGID_10_">
			<use xlink:href="#SVGID_9_"  style="overflow:visible;"/>
		</clipPath>
		<g class="st284">
			<rect x="2.1" y="54.7" class="st285" width="55.9" height="9.2"/>
		</g>
	</g>
</g>
</svg>
