<?xml version="1.0" encoding="utf-8"?>
<!-- Generator: Adobe Illustrator 21.0.2, SVG Export Plug-In . SVG Version: 6.00 Build 0)  -->
<svg version="1.1" id="Layer_1" xmlns="http://www.w3.org/2000/svg" xmlns:xlink="http://www.w3.org/1999/xlink" x="0px" y="0px"
	 viewBox="0 0 40 40.2" style="enable-background:new 0 0 40 40.2;" xml:space="preserve">
<style type="text/css">
	.st0{fill:#7C529D;}
	.st1{fill:#2A7AB9;}
</style>
<g>
	<path class="st0" d="M21.5,18.2L21.5,18.2C21.5,18.1,21.5,18.1,21.5,18.2L21.5,18.2z"/>
	<path class="st1" d="M33,0.1H7c-3.9,0-7,3.1-7,7v26c0,3.9,3.1,7,7,7h26c3.9,0,7-3.1,7-7v-26C40,3.3,36.9,0.1,33,0.1z M12.1,33.7h-6
		V15.5h6V33.7z M9.1,13L9.1,13C7,13,5.7,11.6,5.7,9.9c0-1.8,1.4-3.1,3.4-3.1c2.1,0,3.3,1.4,3.4,3.1C12.5,11.6,11.2,13,9.1,13z
		 M33.9,33.7h-6V24c0-2.4-0.9-4.1-3.1-4.1c-1.7,0-2.7,1.1-3.1,2.2c-0.2,0.4-0.2,0.9-0.2,1.5v10.2h-6c0,0,0.1-16.5,0-18.2h6v2.6
		c0.8-1.2,2.2-3,5.4-3c4,0,7,2.6,7,8.2V33.7z"/>
</g>
</svg>
