<?xml version="1.0" encoding="utf-8"?>
<!-- Generator: Adobe Illustrator 21.0.2, SVG Export Plug-In . SVG Version: 6.00 Build 0)  -->
<svg version="1.1" id="Layer_1" xmlns="http://www.w3.org/2000/svg" xmlns:xlink="http://www.w3.org/1999/xlink" x="0px" y="0px"
	 viewBox="0 0 40 40" style="enable-background:new 0 0 40 40;" xml:space="preserve">
<style type="text/css">
	.st0{fill:#34A7DE;}
	.st1{fill:#FFFFFF;}
	.st2{fill:#D2E5F1;}
	.st3{fill:#B5CFE4;}
</style>
<g>
	<path class="st0" d="M33,40H7c-3.9,0-7-3.1-7-7V7c0-3.9,3.1-7,7-7h26c3.9,0,7,3.1,7,7v26C40,36.9,36.9,40,33,40z"/>
	<g>
		<path class="st1" d="M32.8,9.8l-4,20.3c0,0-0.6,1.4-2.1,0.7l-9.3-7.1l-3.4-1.6l-5.7-1.9c0,0-0.9-0.3-1-1c-0.1-0.7,1-1,1-1
			l22.6-8.9C30.9,9.2,32.8,8.4,32.8,9.8z"/>
		<path class="st2" d="M16.6,29.9c0,0-0.3,0-0.6-1.1c-0.3-1.1-2.1-6.7-2.1-6.7l13.7-8.7c0,0,0.8-0.5,0.8,0c0,0,0.1,0.1-0.3,0.5
			s-10.7,9.7-10.7,9.7"/>
		<path class="st3" d="M20.9,26.4l-3.7,3.4c0,0-0.3,0.2-0.6,0.1l0.7-6.2"/>
	</g>
</g>
</svg>
