<?xml version="1.0" encoding="utf-8"?>
<!-- Generator: Adobe Illustrator 21.0.2, SVG Export Plug-In . SVG Version: 6.00 Build 0)  -->
<svg version="1.1" id="Layer_1" xmlns="http://www.w3.org/2000/svg" xmlns:xlink="http://www.w3.org/1999/xlink" x="0px" y="0px"
	 viewBox="0 0 40 40.1" style="enable-background:new 0 0 40 40.1;" xml:space="preserve">
<style type="text/css">
	.st0{fill:#7C529D;}
</style>
<g transform="translate(0.000000,950.000000) scale(0.100000,-0.100000)">
	<path class="st0" d="M60,9499.5c-7.8-0.9-16.5-3.6-24.2-7.6c-18-9.5-31.4-28-35-48.4C0,9439.2,0,9433.4,0,9298.8v-140.3l1-4.4
		c6.2-27.9,25.9-47.6,53.7-53.7l4.4-1H200h140.9l4.4,1c27.9,6.2,47.6,25.9,53.7,53.7l1,4.4v140.3c0,134.6,0,140.4-0.8,144.8
		c-1.1,6.3-3.2,12.5-6.5,19.1c-10.1,20.4-30.5,34.6-53.4,37C334.1,9500.2,65,9500.1,60,9499.5z M213,9428.3
		c14.7-1.8,26.6-5.4,39.7-11.8c12.8-6.3,21.1-12.2,31.9-23.1c10.2-10.2,15.8-18,21.8-30c8.4-16.8,13.1-36.7,13.9-58.7
		c0.3-7.5,0.1-9.2-1.6-11.3c-3.3-4.2-10.4-3.5-12.8,1.2c-0.8,1.5-1,2.9-1.2,8.9c-0.4,9.2-1.1,15.2-2.4,22.3
		c-5.1,27.9-18.4,50.1-39.7,66.1c-17.8,13.4-36.1,19.9-60.2,21.3c-8.1,0.5-9.6,0.8-11.4,2.2c-3.4,2.7-3.6,9-0.3,12
		c2,1.8,3.4,2.1,10.4,1.9C204.7,9429.1,210.1,9428.6,213,9428.3z M115.1,9423.7c1.5-0.5,3.8-1.7,5.1-2.6
		c8.1-5.4,30.8-34.4,38.2-48.9c4.2-8.3,5.7-14.4,4.3-18.9c-1.4-4.9-3.6-7.5-13.8-15.6c-4.1-3.3-7.9-6.7-8.5-7.6
		c-1.5-2.2-2.8-6.6-2.8-9.7c0-7.2,4.7-20.1,10.8-30.1c4.7-7.8,13.1-17.7,21.5-25.3c9.8-9,18.5-15.1,28.2-20
		c12.5-6.3,20.2-7.8,25.8-5.2c1.4,0.6,2.9,1.5,3.4,1.9c0.4,0.4,3.7,4.4,7.3,8.9c6.9,8.7,8.5,10.2,13.3,11.8c6,2.1,12.2,1.5,18.4-1.7
		c4.7-2.4,15-8.8,21.6-13.4c8.7-6.1,27.4-21.4,29.9-24.4c4.5-5.5,5.2-12.5,2.2-20.3c-3.2-8.2-15.5-23.5-24.1-30.1
		c-7.8-5.9-13.3-8.2-20.6-8.5c-6-0.3-8.5,0.2-16.1,3.4c-60.1,24.8-108.1,61.8-146.3,112.6c-19.9,26.6-35.1,54.1-45.4,82.7
		c-6,16.7-6.3,23.9-1.4,32.4c2.1,3.6,11.3,12.5,17.9,17.5c11,8.2,16.1,11.3,20.2,12.1C107.2,9425.3,112,9424.8,115.1,9423.7z
		 M215.9,9397.3c26-3.8,46.1-15.9,59.3-35.5c7.4-11,12-24,13.6-37.9c0.6-5.1,0.6-14.4,0-15.9c-0.6-1.5-2.4-3.4-3.9-4.2
		c-1.7-0.9-5.2-0.8-7.2,0.3c-3.3,1.7-4.3,4.3-4.3,11.5c0,11.1-2.9,22.8-7.8,31.9c-5.7,10.4-13.9,18.9-23.9,24.9
		c-8.6,5.1-21.3,9-32.9,9.9c-4.2,0.3-6.5,1.2-8.1,3c-2.4,2.8-2.7,6.6-0.6,9.7C202.3,9398.2,205.7,9398.8,215.9,9397.3z
		 M225.1,9364.9c8.4-1.8,14.9-5,20.4-10.2c7.1-6.7,11-14.9,12.7-26.6c1.2-7.6,0.7-10.6-2-13.1c-2.5-2.3-7.2-2.4-10-0.2
		c-2.1,1.5-2.7,3.2-3.2,7.6c-0.6,5.9-1.6,10-3.3,13.8c-3.8,8.1-10.4,12.3-21.6,13.7c-5.3,0.6-6.9,1.2-8.6,3.3
		c-3.1,3.7-1.9,9.8,2.4,12c1.6,0.8,2.3,0.9,5.9,0.7C220,9365.7,223.3,9365.3,225.1,9364.9z"/>
</g>
</svg>
