<svg xmlns="http://www.w3.org/2000/svg" viewBox="0 0 40 40"><defs><style>.cls-1{fill:#7c529d;}</style></defs><title>viber1</title><g id="Layer_2" data-name="Layer 2"><g id="Layer_1-2" data-name="Layer 1"><path class="cls-1" d="M31,0H9A9,9,0,0,0,0,9V31a9,9,0,0,0,9,9H31a9,9,0,0,0,9-9V9A9,9,0,0,0,31,0Zm2.46,24-.08.17A9.63,9.63,0,0,1,27.31,30l-.12,0-.12,0a37.37,37.37,0,0,1-6.95.65h-.26l-1.78,1.92-2.55,2.61a2.34,2.34,0,0,1-1.64.68,2.3,2.3,0,0,1-2.3-2.21V29.62a9.64,9.64,0,0,1-4.83-5.34l0-.13,0-.13a27.49,27.49,0,0,1,0-11.71l0-.13,0-.13a9.63,9.63,0,0,1,6.07-5.83l.11,0,.12,0a37.25,37.25,0,0,1,14,0l.12,0,.12,0a9.62,9.62,0,0,1,6.07,5.83l0,.12,0,.13A27.45,27.45,0,0,1,33.46,24Z"/><path class="cls-1" d="M31.48,12.75a7.56,7.56,0,0,0-4.8-4.61,35.24,35.24,0,0,0-13.23,0,7.56,7.56,0,0,0-4.8,4.61,25.29,25.29,0,0,0,0,10.85,7.56,7.56,0,0,0,4.8,4.61.19.19,0,0,1,.15.17v5.27a.3.3,0,0,0,.51.21l2.51-2.57L19,28.72a.17.17,0,0,1,.13,0,35.28,35.28,0,0,0,7.56-.6,7.56,7.56,0,0,0,4.8-4.61v.09A25.28,25.28,0,0,0,31.48,12.75ZM26.7,23.87a4.06,4.06,0,0,1-1.76,1.89,4.22,4.22,0,0,1-.76.25c-.28-.09-.57-.15-.83-.26a19,19,0,0,1-7.16-4.8,18.62,18.62,0,0,1-2.74-4.2c-.34-.72-.64-1.46-.95-2.19a1.89,1.89,0,0,1,.57-1.89,4.42,4.42,0,0,1,1.47-1.12,1,1,0,0,1,1.19.28,15.28,15.28,0,0,1,1.89,2.57,1.23,1.23,0,0,1-.34,1.66l-.4.3a1.3,1.3,0,0,0-.3.32.85.85,0,0,0,0,.76,6.84,6.84,0,0,0,3.78,4.25,1.89,1.89,0,0,0,1,.25c.59-.08.79-.74,1.21-1.08a1.15,1.15,0,0,1,1.38,0c.45.28.87.59,1.3.89a14.82,14.82,0,0,1,1.23.93A1,1,0,0,1,26.7,23.87Zm-2.53-8.36a4,4,0,0,0-1.68-1.57,4.84,4.84,0,0,0-1.34-.42l-.68-.11h0a.41.41,0,0,1,.1-.81,5.56,5.56,0,0,1,2.33.6,4.69,4.69,0,0,1,2.55,3.65v.83a1.65,1.65,0,0,1,0,.25.4.4,0,0,1-.76,0,1.08,1.08,0,0,1,0-.34A4.29,4.29,0,0,0,24.17,15.51Zm-2,.13a1.53,1.53,0,0,0-.47-.23,1.65,1.65,0,0,0-.66-.09h0a.4.4,0,0,1-.31-.47.43.43,0,0,1,.45-.34h0A2.44,2.44,0,0,1,23.58,17a1.12,1.12,0,0,1,0,.34.36.36,0,0,1-.4.26h0a.43.43,0,0,1-.43-.44,4.42,4.42,0,0,0,0-.57A1.59,1.59,0,0,0,22.14,15.64ZM26.95,19c-.28,0-.4,0-.43-.49s-.13-1-.13-1.51a6.33,6.33,0,0,0-5.1-5.29,5.86,5.86,0,0,0-1.19-.13c-.26,0-.64,0-.64-.36a.44.44,0,0,1,0-.06.43.43,0,0,1,.44-.43h.21a7.2,7.2,0,0,1,7.07,5.9,6.69,6.69,0,0,1,.19,1.89.42.42,0,0,1-.4.49Z"/></g></g></svg>